<?xml version="1.0" encoding="UTF-8" standalone="no"?>
<!DOCTYPE svg PUBLIC "-//W3C//DTD SVG 1.1//EN"
 "http://www.w3.org/Graphics/SVG/1.1/DTD/svg11.dtd">
<!-- Generated by graphviz version 2.47.3 (20210619.1520)
 -->
<!-- Title: dependencies Pages: 1 -->
<svg width="2135pt" height="247pt"
 viewBox="0.00 0.00 2135.00 246.80" xmlns="http://www.w3.org/2000/svg" xmlns:xlink="http://www.w3.org/1999/xlink">
<g id="graph0" class="graph" transform="scale(1 1) rotate(0) translate(4 242.8)">
<title>dependencies</title>
<polygon fill="white" stroke="transparent" points="-4,4 -4,-242.8 2131,-242.8 2131,4 -4,4"/>
<text text-anchor="middle" x="1063.5" y="-8.2" font-family="sans-serif" font-size="14.00">dependencies</text>
<g id="clust1" class="cluster">
<title>cluster_AppModule</title>
<polygon fill="none" stroke="black" stroke-dasharray="1,5" points="8,-32.8 8,-230.8 2119,-230.8 2119,-32.8 8,-32.8"/>
</g>
<g id="clust18" class="cluster">
<title>cluster_AppModule_bootstrap</title>
<polygon fill="none" stroke="black" points="1068,-170.8 1068,-222.8 1192,-222.8 1192,-170.8 1068,-170.8"/>
</g>
<g id="clust16" class="cluster">
<title>cluster_AppModule_imports</title>
<polygon fill="none" stroke="black" points="1967,-40.8 1967,-92.8 2111,-92.8 2111,-40.8 1967,-40.8"/>
</g>
<g id="clust2" class="cluster">
<title>cluster_AppModule_declarations</title>
<polygon fill="none" stroke="black" points="16,-40.8 16,-92.8 1959,-92.8 1959,-40.8 16,-40.8"/>
</g>
<!-- AlertasComponent -->
<g id="node1" class="node">
<title>AlertasComponent</title>
<polygon fill="#ffffb3" stroke="black" points="1950.75,-84.8 1829.25,-84.8 1829.25,-48.8 1950.75,-48.8 1950.75,-84.8"/>
<text text-anchor="middle" x="1890" y="-62.6" font-family="Times,serif" font-size="14.00">AlertasComponent</text>
</g>
<!-- AppModule -->
<g id="node14" class="node">
<title>AppModule</title>
<polygon fill="#8dd3c7" stroke="black" points="1171.66,-149.8 1168.66,-153.8 1147.66,-153.8 1144.66,-149.8 1088.34,-149.8 1088.34,-113.8 1171.66,-113.8 1171.66,-149.8"/>
<text text-anchor="middle" x="1130" y="-127.6" font-family="Times,serif" font-size="14.00">AppModule</text>
</g>
<!-- AlertasComponent&#45;&gt;AppModule -->
<g id="edge1" class="edge">
<title>AlertasComponent&#45;&gt;AppModule</title>
<path fill="none" stroke="black" d="M1890,-84.84C1890,-106.46 1890,-139.8 1890,-139.8 1890,-139.8 1181.67,-139.8 1181.67,-139.8"/>
<polygon fill="black" stroke="black" points="1181.67,-136.3 1171.67,-139.8 1181.67,-143.3 1181.67,-136.3"/>
</g>
<!-- AppComponent -->
<g id="node2" class="node">
<title>AppComponent</title>
<polygon fill="#ffffb3" stroke="black" points="1810.94,-84.8 1705.06,-84.8 1705.06,-48.8 1810.94,-48.8 1810.94,-84.8"/>
<text text-anchor="middle" x="1758" y="-62.6" font-family="Times,serif" font-size="14.00">AppComponent</text>
</g>
<!-- AppComponent&#45;&gt;AppModule -->
<g id="edge2" class="edge">
<title>AppComponent&#45;&gt;AppModule</title>
<path fill="none" stroke="black" d="M1758,-85.02C1758,-105.17 1758,-134.8 1758,-134.8 1758,-134.8 1181.69,-134.8 1181.69,-134.8"/>
<polygon fill="black" stroke="black" points="1181.69,-131.3 1171.69,-134.8 1181.69,-138.3 1181.69,-131.3"/>
</g>
<!-- CadastrarComponent -->
<g id="node3" class="node">
<title>CadastrarComponent</title>
<polygon fill="#ffffb3" stroke="black" points="1687.47,-84.8 1552.53,-84.8 1552.53,-48.8 1687.47,-48.8 1687.47,-84.8"/>
<text text-anchor="middle" x="1620" y="-62.6" font-family="Times,serif" font-size="14.00">CadastrarComponent</text>
</g>
<!-- CadastrarComponent&#45;&gt;AppModule -->
<g id="edge3" class="edge">
<title>CadastrarComponent&#45;&gt;AppModule</title>
<path fill="none" stroke="black" d="M1620,-85.02C1620,-103.63 1620,-129.8 1620,-129.8 1620,-129.8 1181.78,-129.8 1181.78,-129.8"/>
<polygon fill="black" stroke="black" points="1181.78,-126.3 1171.78,-129.8 1181.78,-133.3 1181.78,-126.3"/>
</g>
<!-- EntrarComponent -->
<g id="node4" class="node">
<title>EntrarComponent</title>
<polygon fill="#ffffb3" stroke="black" points="1534.31,-84.8 1417.69,-84.8 1417.69,-48.8 1534.31,-48.8 1534.31,-84.8"/>
<text text-anchor="middle" x="1476" y="-62.6" font-family="Times,serif" font-size="14.00">EntrarComponent</text>
</g>
<!-- EntrarComponent&#45;&gt;AppModule -->
<g id="edge4" class="edge">
<title>EntrarComponent&#45;&gt;AppModule</title>
<path fill="none" stroke="black" d="M1476,-84.83C1476,-101.86 1476,-124.8 1476,-124.8 1476,-124.8 1181.74,-124.8 1181.74,-124.8"/>
<polygon fill="black" stroke="black" points="1181.74,-121.3 1171.74,-124.8 1181.74,-128.3 1181.74,-121.3"/>
</g>
<!-- InicioComponent -->
<g id="node5" class="node">
<title>InicioComponent</title>
<polygon fill="#ffffb3" stroke="black" points="1399.99,-84.8 1286.01,-84.8 1286.01,-48.8 1399.99,-48.8 1399.99,-84.8"/>
<text text-anchor="middle" x="1343" y="-62.6" font-family="Times,serif" font-size="14.00">InicioComponent</text>
</g>
<!-- InicioComponent&#45;&gt;AppModule -->
<g id="edge5" class="edge">
<title>InicioComponent&#45;&gt;AppModule</title>
<path fill="none" stroke="black" d="M1343,-85.04C1343,-100.37 1343,-119.8 1343,-119.8 1343,-119.8 1181.83,-119.8 1181.83,-119.8"/>
<polygon fill="black" stroke="black" points="1181.83,-116.3 1171.83,-119.8 1181.83,-123.3 1181.83,-116.3"/>
</g>
<!-- MenuComponent -->
<g id="node6" class="node">
<title>MenuComponent</title>
<polygon fill="#ffffb3" stroke="black" points="1267.99,-84.8 1154.01,-84.8 1154.01,-48.8 1267.99,-48.8 1267.99,-84.8"/>
<text text-anchor="middle" x="1211" y="-62.6" font-family="Times,serif" font-size="14.00">MenuComponent</text>
</g>
<!-- MenuComponent&#45;&gt;AppModule -->
<g id="edge6" class="edge">
<title>MenuComponent&#45;&gt;AppModule</title>
<path fill="none" stroke="black" d="M1162.92,-84.91C1162.92,-84.91 1162.92,-103.79 1162.92,-103.79"/>
<polygon fill="black" stroke="black" points="1159.42,-103.79 1162.92,-113.79 1166.42,-103.79 1159.42,-103.79"/>
</g>
<!-- PostagemDeleteComponent -->
<g id="node7" class="node">
<title>PostagemDeleteComponent</title>
<polygon fill="#ffffb3" stroke="black" points="1136.3,-84.8 963.7,-84.8 963.7,-48.8 1136.3,-48.8 1136.3,-84.8"/>
<text text-anchor="middle" x="1050" y="-62.6" font-family="Times,serif" font-size="14.00">PostagemDeleteComponent</text>
</g>
<!-- PostagemDeleteComponent&#45;&gt;AppModule -->
<g id="edge7" class="edge">
<title>PostagemDeleteComponent&#45;&gt;AppModule</title>
<path fill="none" stroke="black" d="M1112.16,-84.91C1112.16,-84.91 1112.16,-103.79 1112.16,-103.79"/>
<polygon fill="black" stroke="black" points="1108.66,-103.79 1112.16,-113.79 1115.66,-103.79 1108.66,-103.79"/>
</g>
<!-- PostagemEditComponent -->
<g id="node8" class="node">
<title>PostagemEditComponent</title>
<polygon fill="#ffffb3" stroke="black" points="945.6,-84.8 786.4,-84.8 786.4,-48.8 945.6,-48.8 945.6,-84.8"/>
<text text-anchor="middle" x="866" y="-62.6" font-family="Times,serif" font-size="14.00">PostagemEditComponent</text>
</g>
<!-- PostagemEditComponent&#45;&gt;AppModule -->
<g id="edge8" class="edge">
<title>PostagemEditComponent&#45;&gt;AppModule</title>
<path fill="none" stroke="black" d="M866,-85.04C866,-100.37 866,-119.8 866,-119.8 866,-119.8 1078.17,-119.8 1078.17,-119.8"/>
<polygon fill="black" stroke="black" points="1078.17,-123.3 1088.17,-119.8 1078.17,-116.3 1078.17,-123.3"/>
</g>
<!-- RodapeComponent -->
<g id="node9" class="node">
<title>RodapeComponent</title>
<polygon fill="#ffffb3" stroke="black" points="768.1,-84.8 643.9,-84.8 643.9,-48.8 768.1,-48.8 768.1,-84.8"/>
<text text-anchor="middle" x="706" y="-62.6" font-family="Times,serif" font-size="14.00">RodapeComponent</text>
</g>
<!-- RodapeComponent&#45;&gt;AppModule -->
<g id="edge9" class="edge">
<title>RodapeComponent&#45;&gt;AppModule</title>
<path fill="none" stroke="black" d="M706,-84.83C706,-101.86 706,-124.8 706,-124.8 706,-124.8 1078.18,-124.8 1078.18,-124.8"/>
<polygon fill="black" stroke="black" points="1078.18,-128.3 1088.18,-124.8 1078.18,-121.3 1078.18,-128.3"/>
</g>
<!-- TemaComponent -->
<g id="node10" class="node">
<title>TemaComponent</title>
<polygon fill="#ffffb3" stroke="black" points="625.7,-84.8 512.3,-84.8 512.3,-48.8 625.7,-48.8 625.7,-84.8"/>
<text text-anchor="middle" x="569" y="-62.6" font-family="Times,serif" font-size="14.00">TemaComponent</text>
</g>
<!-- TemaComponent&#45;&gt;AppModule -->
<g id="edge10" class="edge">
<title>TemaComponent&#45;&gt;AppModule</title>
<path fill="none" stroke="black" d="M569,-85.02C569,-103.63 569,-129.8 569,-129.8 569,-129.8 1078.29,-129.8 1078.29,-129.8"/>
<polygon fill="black" stroke="black" points="1078.29,-133.3 1088.29,-129.8 1078.29,-126.3 1078.29,-133.3"/>
</g>
<!-- TemaDeleteComponent -->
<g id="node11" class="node">
<title>TemaDeleteComponent</title>
<polygon fill="#ffffb3" stroke="black" points="494.74,-84.8 345.26,-84.8 345.26,-48.8 494.74,-48.8 494.74,-84.8"/>
<text text-anchor="middle" x="420" y="-62.6" font-family="Times,serif" font-size="14.00">TemaDeleteComponent</text>
</g>
<!-- TemaDeleteComponent&#45;&gt;AppModule -->
<g id="edge11" class="edge">
<title>TemaDeleteComponent&#45;&gt;AppModule</title>
<path fill="none" stroke="black" d="M420,-85.02C420,-105.17 420,-134.8 420,-134.8 420,-134.8 1078.24,-134.8 1078.24,-134.8"/>
<polygon fill="black" stroke="black" points="1078.24,-138.3 1088.24,-134.8 1078.24,-131.3 1078.24,-138.3"/>
</g>
<!-- TemaEditComponent -->
<g id="node12" class="node">
<title>TemaEditComponent</title>
<polygon fill="#ffffb3" stroke="black" points="327.04,-84.8 190.96,-84.8 190.96,-48.8 327.04,-48.8 327.04,-84.8"/>
<text text-anchor="middle" x="259" y="-62.6" font-family="Times,serif" font-size="14.00">TemaEditComponent</text>
</g>
<!-- TemaEditComponent&#45;&gt;AppModule -->
<g id="edge12" class="edge">
<title>TemaEditComponent&#45;&gt;AppModule</title>
<path fill="none" stroke="black" d="M259,-84.84C259,-106.46 259,-139.8 259,-139.8 259,-139.8 1078.28,-139.8 1078.28,-139.8"/>
<polygon fill="black" stroke="black" points="1078.28,-143.3 1088.28,-139.8 1078.28,-136.3 1078.28,-143.3"/>
</g>
<!-- UsuarioEditComponent -->
<g id="node13" class="node">
<title>UsuarioEditComponent</title>
<polygon fill="#ffffb3" stroke="black" points="172.48,-84.8 23.52,-84.8 23.52,-48.8 172.48,-48.8 172.48,-84.8"/>
<text text-anchor="middle" x="98" y="-62.6" font-family="Times,serif" font-size="14.00">UsuarioEditComponent</text>
</g>
<!-- UsuarioEditComponent&#45;&gt;AppModule -->
<g id="edge13" class="edge">
<title>UsuarioEditComponent&#45;&gt;AppModule</title>
<path fill="none" stroke="black" d="M98,-84.89C98,-107.93 98,-144.8 98,-144.8 98,-144.8 1078.27,-144.8 1078.27,-144.8"/>
<polygon fill="black" stroke="black" points="1078.27,-148.3 1088.27,-144.8 1078.27,-141.3 1078.27,-148.3"/>
</g>
<!-- AppComponent  -->
<g id="node16" class="node">
<title>AppComponent </title>
<polygon fill="#80b1d3" stroke="black" points="1184.44,-214.8 1075.56,-214.8 1075.56,-178.8 1184.44,-178.8 1184.44,-214.8"/>
<text text-anchor="middle" x="1130" y="-192.6" font-family="Times,serif" font-size="14.00">AppComponent </text>
</g>
<!-- AppModule&#45;&gt;AppComponent  -->
<g id="edge15" class="edge">
<title>AppModule&#45;&gt;AppComponent </title>
<path fill="none" stroke="black" stroke-dasharray="1,5" d="M1130,-149.91C1130,-149.91 1130,-168.79 1130,-168.79"/>
<polygon fill="black" stroke="black" points="1126.5,-168.79 1130,-178.79 1133.5,-168.79 1126.5,-168.79"/>
</g>
<!-- AppRoutingModule -->
<g id="node15" class="node">
<title>AppRoutingModule</title>
<polygon fill="#8dd3c7" stroke="black" points="2103.27,-84.8 2100.27,-88.8 2079.27,-88.8 2076.27,-84.8 1974.73,-84.8 1974.73,-48.8 2103.27,-48.8 2103.27,-84.8"/>
<text text-anchor="middle" x="2039" y="-62.6" font-family="Times,serif" font-size="14.00">AppRoutingModule</text>
</g>
<!-- AppRoutingModule&#45;&gt;AppModule -->
<g id="edge14" class="edge">
<title>AppRoutingModule&#45;&gt;AppModule</title>
<path fill="none" stroke="black" d="M2039,-84.89C2039,-107.93 2039,-144.8 2039,-144.8 2039,-144.8 1181.72,-144.8 1181.72,-144.8"/>
<polygon fill="black" stroke="black" points="1181.72,-141.3 1171.72,-144.8 1181.72,-148.3 1181.72,-141.3"/>
</g>
</g>
</svg>
