<?xml version="1.0" encoding="UTF-8" standalone="no"?>
<!DOCTYPE svg PUBLIC "-//W3C//DTD SVG 1.1//EN"
 "http://www.w3.org/Graphics/SVG/1.1/DTD/svg11.dtd">
<!-- Generated by graphviz version 2.47.3 (20210619.1520)
 -->
<!-- Title: dependencies Pages: 1 -->
<svg width="2135pt" height="247pt"
 viewBox="0.00 0.00 2135.00 246.80" xmlns="http://www.w3.org/2000/svg" xmlns:xlink="http://www.w3.org/1999/xlink">
<g id="graph0" class="graph" transform="scale(1 1) rotate(0) translate(4 242.8)">
<title>dependencies</title>
<polygon fill="white" stroke="transparent" points="-4,4 -4,-242.8 2131,-242.8 2131,4 -4,4"/>
<text text-anchor="middle" x="1063.5" y="-8.2" font-family="sans-serif" font-size="14.00">dependencies</text>
<g id="clust1" class="cluster">
<title>cluster_AppModule</title>
<polygon fill="none" stroke="black" stroke-dasharray="1,5" points="8,-32.8 8,-230.8 2119,-230.8 2119,-32.8 8,-32.8"/>
</g>
<g id="clust2" class="cluster">
<title>cluster_AppModule_declarations</title>
<polygon fill="none" stroke="black" points="168,-40.8 168,-92.8 2111,-92.8 2111,-40.8 168,-40.8"/>
</g>
<g id="clust16" class="cluster">
<title>cluster_AppModule_imports</title>
<polygon fill="none" stroke="black" points="16,-40.8 16,-92.8 160,-92.8 160,-40.8 16,-40.8"/>
</g>
<g id="clust18" class="cluster">
<title>cluster_AppModule_bootstrap</title>
<polygon fill="none" stroke="black" points="1048,-170.8 1048,-222.8 1172,-222.8 1172,-170.8 1048,-170.8"/>
</g>
<!-- AlertasComponent -->
<g id="node1" class="node">
<title>AlertasComponent</title>
<polygon fill="#ffffb3" stroke="black" points="2102.75,-84.8 1981.25,-84.8 1981.25,-48.8 2102.75,-48.8 2102.75,-84.8"/>
<text text-anchor="middle" x="2042" y="-62.6" font-family="Times,serif" font-size="14.00">AlertasComponent</text>
</g>
<!-- AppModule -->
<g id="node14" class="node">
<title>AppModule</title>
<polygon fill="#8dd3c7" stroke="black" points="1151.66,-149.8 1148.66,-153.8 1127.66,-153.8 1124.66,-149.8 1068.34,-149.8 1068.34,-113.8 1151.66,-113.8 1151.66,-149.8"/>
<text text-anchor="middle" x="1110" y="-127.6" font-family="Times,serif" font-size="14.00">AppModule</text>
</g>
<!-- AlertasComponent&#45;&gt;AppModule -->
<g id="edge1" class="edge">
<title>AlertasComponent&#45;&gt;AppModule</title>
<path fill="none" stroke="black" d="M2042,-84.89C2042,-107.93 2042,-144.8 2042,-144.8 2042,-144.8 1161.86,-144.8 1161.86,-144.8"/>
<polygon fill="black" stroke="black" points="1161.86,-141.3 1151.86,-144.8 1161.86,-148.3 1161.86,-141.3"/>
</g>
<!-- AppComponent -->
<g id="node2" class="node">
<title>AppComponent</title>
<polygon fill="#ffffb3" stroke="black" points="1962.94,-84.8 1857.06,-84.8 1857.06,-48.8 1962.94,-48.8 1962.94,-84.8"/>
<text text-anchor="middle" x="1910" y="-62.6" font-family="Times,serif" font-size="14.00">AppComponent</text>
</g>
<!-- AppComponent&#45;&gt;AppModule -->
<g id="edge2" class="edge">
<title>AppComponent&#45;&gt;AppModule</title>
<path fill="none" stroke="black" d="M1910,-84.84C1910,-106.46 1910,-139.8 1910,-139.8 1910,-139.8 1161.89,-139.8 1161.89,-139.8"/>
<polygon fill="black" stroke="black" points="1161.89,-136.3 1151.89,-139.8 1161.89,-143.3 1161.89,-136.3"/>
</g>
<!-- CadastrarComponent -->
<g id="node3" class="node">
<title>CadastrarComponent</title>
<polygon fill="#ffffb3" stroke="black" points="1839.47,-84.8 1704.53,-84.8 1704.53,-48.8 1839.47,-48.8 1839.47,-84.8"/>
<text text-anchor="middle" x="1772" y="-62.6" font-family="Times,serif" font-size="14.00">CadastrarComponent</text>
</g>
<!-- CadastrarComponent&#45;&gt;AppModule -->
<g id="edge3" class="edge">
<title>CadastrarComponent&#45;&gt;AppModule</title>
<path fill="none" stroke="black" d="M1772,-85.02C1772,-105.17 1772,-134.8 1772,-134.8 1772,-134.8 1161.66,-134.8 1161.66,-134.8"/>
<polygon fill="black" stroke="black" points="1161.66,-131.3 1151.66,-134.8 1161.66,-138.3 1161.66,-131.3"/>
</g>
<!-- EntrarComponent -->
<g id="node4" class="node">
<title>EntrarComponent</title>
<polygon fill="#ffffb3" stroke="black" points="1686.31,-84.8 1569.69,-84.8 1569.69,-48.8 1686.31,-48.8 1686.31,-84.8"/>
<text text-anchor="middle" x="1628" y="-62.6" font-family="Times,serif" font-size="14.00">EntrarComponent</text>
</g>
<!-- EntrarComponent&#45;&gt;AppModule -->
<g id="edge4" class="edge">
<title>EntrarComponent&#45;&gt;AppModule</title>
<path fill="none" stroke="black" d="M1628,-85.02C1628,-103.63 1628,-129.8 1628,-129.8 1628,-129.8 1161.95,-129.8 1161.95,-129.8"/>
<polygon fill="black" stroke="black" points="1161.95,-126.3 1151.95,-129.8 1161.95,-133.3 1161.95,-126.3"/>
</g>
<!-- InicioComponent -->
<g id="node5" class="node">
<title>InicioComponent</title>
<polygon fill="#ffffb3" stroke="black" points="1551.99,-84.8 1438.01,-84.8 1438.01,-48.8 1551.99,-48.8 1551.99,-84.8"/>
<text text-anchor="middle" x="1495" y="-62.6" font-family="Times,serif" font-size="14.00">InicioComponent</text>
</g>
<!-- InicioComponent&#45;&gt;AppModule -->
<g id="edge5" class="edge">
<title>InicioComponent&#45;&gt;AppModule</title>
<path fill="none" stroke="black" d="M1495,-84.83C1495,-101.86 1495,-124.8 1495,-124.8 1495,-124.8 1161.93,-124.8 1161.93,-124.8"/>
<polygon fill="black" stroke="black" points="1161.93,-121.3 1151.93,-124.8 1161.93,-128.3 1161.93,-121.3"/>
</g>
<!-- MenuComponent -->
<g id="node6" class="node">
<title>MenuComponent</title>
<polygon fill="#ffffb3" stroke="black" points="1419.99,-84.8 1306.01,-84.8 1306.01,-48.8 1419.99,-48.8 1419.99,-84.8"/>
<text text-anchor="middle" x="1363" y="-62.6" font-family="Times,serif" font-size="14.00">MenuComponent</text>
</g>
<!-- MenuComponent&#45;&gt;AppModule -->
<g id="edge6" class="edge">
<title>MenuComponent&#45;&gt;AppModule</title>
<path fill="none" stroke="black" d="M1363,-85.04C1363,-100.37 1363,-119.8 1363,-119.8 1363,-119.8 1161.78,-119.8 1161.78,-119.8"/>
<polygon fill="black" stroke="black" points="1161.78,-116.3 1151.78,-119.8 1161.78,-123.3 1161.78,-116.3"/>
</g>
<!-- PostagemDeleteComponent -->
<g id="node7" class="node">
<title>PostagemDeleteComponent</title>
<polygon fill="#ffffb3" stroke="black" points="1288.3,-84.8 1115.7,-84.8 1115.7,-48.8 1288.3,-48.8 1288.3,-84.8"/>
<text text-anchor="middle" x="1202" y="-62.6" font-family="Times,serif" font-size="14.00">PostagemDeleteComponent</text>
</g>
<!-- PostagemDeleteComponent&#45;&gt;AppModule -->
<g id="edge7" class="edge">
<title>PostagemDeleteComponent&#45;&gt;AppModule</title>
<path fill="none" stroke="black" d="M1133.84,-84.91C1133.84,-84.91 1133.84,-103.79 1133.84,-103.79"/>
<polygon fill="black" stroke="black" points="1130.34,-103.79 1133.84,-113.79 1137.34,-103.79 1130.34,-103.79"/>
</g>
<!-- PostagemEditComponent -->
<g id="node8" class="node">
<title>PostagemEditComponent</title>
<polygon fill="#ffffb3" stroke="black" points="1097.6,-84.8 938.4,-84.8 938.4,-48.8 1097.6,-48.8 1097.6,-84.8"/>
<text text-anchor="middle" x="1018" y="-62.6" font-family="Times,serif" font-size="14.00">PostagemEditComponent</text>
</g>
<!-- PostagemEditComponent&#45;&gt;AppModule -->
<g id="edge8" class="edge">
<title>PostagemEditComponent&#45;&gt;AppModule</title>
<path fill="none" stroke="black" d="M1082.86,-84.91C1082.86,-84.91 1082.86,-103.79 1082.86,-103.79"/>
<polygon fill="black" stroke="black" points="1079.36,-103.79 1082.86,-113.79 1086.36,-103.79 1079.36,-103.79"/>
</g>
<!-- RodapeComponent -->
<g id="node9" class="node">
<title>RodapeComponent</title>
<polygon fill="#ffffb3" stroke="black" points="920.1,-84.8 795.9,-84.8 795.9,-48.8 920.1,-48.8 920.1,-84.8"/>
<text text-anchor="middle" x="858" y="-62.6" font-family="Times,serif" font-size="14.00">RodapeComponent</text>
</g>
<!-- RodapeComponent&#45;&gt;AppModule -->
<g id="edge9" class="edge">
<title>RodapeComponent&#45;&gt;AppModule</title>
<path fill="none" stroke="black" d="M858,-85.04C858,-100.37 858,-119.8 858,-119.8 858,-119.8 1058.1,-119.8 1058.1,-119.8"/>
<polygon fill="black" stroke="black" points="1058.1,-123.3 1068.1,-119.8 1058.1,-116.3 1058.1,-123.3"/>
</g>
<!-- TemaComponent -->
<g id="node10" class="node">
<title>TemaComponent</title>
<polygon fill="#ffffb3" stroke="black" points="777.7,-84.8 664.3,-84.8 664.3,-48.8 777.7,-48.8 777.7,-84.8"/>
<text text-anchor="middle" x="721" y="-62.6" font-family="Times,serif" font-size="14.00">TemaComponent</text>
</g>
<!-- TemaComponent&#45;&gt;AppModule -->
<g id="edge10" class="edge">
<title>TemaComponent&#45;&gt;AppModule</title>
<path fill="none" stroke="black" d="M721,-84.83C721,-101.86 721,-124.8 721,-124.8 721,-124.8 1058,-124.8 1058,-124.8"/>
<polygon fill="black" stroke="black" points="1058,-128.3 1068,-124.8 1058,-121.3 1058,-128.3"/>
</g>
<!-- TemaDeleteComponent -->
<g id="node11" class="node">
<title>TemaDeleteComponent</title>
<polygon fill="#ffffb3" stroke="black" points="646.74,-84.8 497.26,-84.8 497.26,-48.8 646.74,-48.8 646.74,-84.8"/>
<text text-anchor="middle" x="572" y="-62.6" font-family="Times,serif" font-size="14.00">TemaDeleteComponent</text>
</g>
<!-- TemaDeleteComponent&#45;&gt;AppModule -->
<g id="edge11" class="edge">
<title>TemaDeleteComponent&#45;&gt;AppModule</title>
<path fill="none" stroke="black" d="M572,-85.02C572,-103.63 572,-129.8 572,-129.8 572,-129.8 1058.23,-129.8 1058.23,-129.8"/>
<polygon fill="black" stroke="black" points="1058.23,-133.3 1068.23,-129.8 1058.23,-126.3 1058.23,-133.3"/>
</g>
<!-- TemaEditComponent -->
<g id="node12" class="node">
<title>TemaEditComponent</title>
<polygon fill="#ffffb3" stroke="black" points="479.04,-84.8 342.96,-84.8 342.96,-48.8 479.04,-48.8 479.04,-84.8"/>
<text text-anchor="middle" x="411" y="-62.6" font-family="Times,serif" font-size="14.00">TemaEditComponent</text>
</g>
<!-- TemaEditComponent&#45;&gt;AppModule -->
<g id="edge12" class="edge">
<title>TemaEditComponent&#45;&gt;AppModule</title>
<path fill="none" stroke="black" d="M411,-85.02C411,-105.17 411,-134.8 411,-134.8 411,-134.8 1058.11,-134.8 1058.11,-134.8"/>
<polygon fill="black" stroke="black" points="1058.11,-138.3 1068.11,-134.8 1058.11,-131.3 1058.11,-138.3"/>
</g>
<!-- UsuarioEditComponent -->
<g id="node13" class="node">
<title>UsuarioEditComponent</title>
<polygon fill="#ffffb3" stroke="black" points="324.48,-84.8 175.52,-84.8 175.52,-48.8 324.48,-48.8 324.48,-84.8"/>
<text text-anchor="middle" x="250" y="-62.6" font-family="Times,serif" font-size="14.00">UsuarioEditComponent</text>
</g>
<!-- UsuarioEditComponent&#45;&gt;AppModule -->
<g id="edge13" class="edge">
<title>UsuarioEditComponent&#45;&gt;AppModule</title>
<path fill="none" stroke="black" d="M250,-84.84C250,-106.46 250,-139.8 250,-139.8 250,-139.8 1058.23,-139.8 1058.23,-139.8"/>
<polygon fill="black" stroke="black" points="1058.23,-143.3 1068.23,-139.8 1058.23,-136.3 1058.23,-143.3"/>
</g>
<!-- AppComponent  -->
<g id="node16" class="node">
<title>AppComponent </title>
<polygon fill="#80b1d3" stroke="black" points="1164.44,-214.8 1055.56,-214.8 1055.56,-178.8 1164.44,-178.8 1164.44,-214.8"/>
<text text-anchor="middle" x="1110" y="-192.6" font-family="Times,serif" font-size="14.00">AppComponent </text>
</g>
<!-- AppModule&#45;&gt;AppComponent  -->
<g id="edge15" class="edge">
<title>AppModule&#45;&gt;AppComponent </title>
<path fill="none" stroke="black" stroke-dasharray="1,5" d="M1110,-149.91C1110,-149.91 1110,-168.79 1110,-168.79"/>
<polygon fill="black" stroke="black" points="1106.5,-168.79 1110,-178.79 1113.5,-168.79 1106.5,-168.79"/>
</g>
<!-- AppRoutingModule -->
<g id="node15" class="node">
<title>AppRoutingModule</title>
<polygon fill="#8dd3c7" stroke="black" points="152.27,-84.8 149.27,-88.8 128.27,-88.8 125.27,-84.8 23.73,-84.8 23.73,-48.8 152.27,-48.8 152.27,-84.8"/>
<text text-anchor="middle" x="88" y="-62.6" font-family="Times,serif" font-size="14.00">AppRoutingModule</text>
</g>
<!-- AppRoutingModule&#45;&gt;AppModule -->
<g id="edge14" class="edge">
<title>AppRoutingModule&#45;&gt;AppModule</title>
<path fill="none" stroke="black" d="M88,-84.89C88,-107.93 88,-144.8 88,-144.8 88,-144.8 1058.03,-144.8 1058.03,-144.8"/>
<polygon fill="black" stroke="black" points="1058.03,-148.3 1068.03,-144.8 1058.03,-141.3 1058.03,-148.3"/>
</g>
</g>
</svg>
